<?xml version="1.0" encoding="UTF-8"?>
<!DOCTYPE svg  PUBLIC '-//W3C//DTD SVG 20010904//EN'  'http://www.w3.org/TR/2001/REC-SVG-20010904/DTD/svg10.dtd'>
<svg width="935px" height="360px" version="1.0" viewBox="0 0 9350 3600" xmlns="http://www.w3.org/2000/svg">
    <g fill="#fff">
        <path d="m2605 3463c7-32 20-92 29-133 8-41 31-151 51-245 19-93 40-186 45-205 6-19 10-41 10-47 0-10-271-13-1320-13h-1320v-40c0-23 6-69 14-103 16-65 43-195 71-337 9-47 21-103 25-125 17-77 82-400 91-445 4-25 29-144 54-265s61-296 80-390c19-93 60-291 90-440 31-148 60-292 65-320 4-27 14-71 20-97l12-48h1334c1196 0 1334 2 1334 15 0 9-7 44-14 78-17 69-34 151-67 307-12 58-26 122-31 143l-9 37h-893-894l-6 38c-19 107-49 265-61 324-8 37-15 72-15 77 0 8 242 11 785 11 537 0 785 3 785 10 0 6-15 82-34 168-36 163-76 357-76 366 0 3-355 6-789 6h-789l-5 28c-20 106-40 211-57 299-11 56-20 109-20 117 0 15 88 16 882 14l882-3 42-195c22-107 51-240 63-295s26-122 31-150c5-27 25-124 45-215s52-239 71-330 40-189 46-218l11-52h385 385l-6 28c-3 15-17 75-30 134-13 60-22 108-20 108s41-29 86-63c248-192 563-280 894-248 289 27 475 99 629 244 107 99 189 264 209 420 4 27 9 47 11 44 3-3 16-56 30-118 13-63 31-143 39-179s22-101 31-145 24-111 33-150l16-70 393-3c357-2 392-1 392 14 0 9-9 55-20 103-10 47-33 151-50 231s-40 186-52 237c-11 50-18 97-16 104s23-21 45-62c84-151 237-316 393-420 131-87 328-173 491-213 388-96 878-98 1229-5 140 36 301 117 380 191 123 114 200 297 200 478v70h-407-408l-17-58c-39-133-151-203-353-221-429-37-726 168-816 564-37 160-17 320 50 408 57 74 157 132 269 156 77 16 251 14 340-5 120-25 235-84 313-163 36-36 79-90 95-118l29-53h418c229 0 417 2 417 4 0 12-101 193-140 251-196 289-478 473-852 559-190 44-275 51-588 51-270 0-319-3-426-22-155-28-293-73-408-131-120-61-255-192-305-295-40-84-67-175-76-262-4-36-9-64-11-62-4 4-26 100-74 332-48 229-60 288-71 328l-10 37h-389c-375 0-390-1-390-19 0-21 84-430 115-558 7-29 9-53 4-53s-9 4-9 8c0 15-111 174-154 222-132 146-290 265-452 341-206 96-408 139-655 139-301 0-507-63-648-197-36-34-66-61-68-59-3 3-30 125-73 331-16 77-39 183-50 235s-28 129-37 170c-8 41-19 89-22 105l-7 30-395 3-396 2 12-57zm1827-1162c227-66 369-212 434-450 48-171 27-334-54-423-95-105-273-152-486-127-248 28-420 142-520 343-49 99-69 184-70 296-1 121 20 186 82 252 68 73 143 111 256 129 82 13 282 2 358-20z"/>
        <path d="m5921 518c5-24 25-115 43-203 19-88 38-177 41-197l7-38h394c333 0 394 2 394 14 0 13-13 77-75 361-8 39-15 78-15 88 0 16-26 17-399 17h-398l8-42z"/>
    </g>
</svg>
