<?xml version="1.0" encoding="UTF-8" standalone="no"?>
<!-- Generator: Adobe Illustrator 14.0.0, SVG Export Plug-In . SVG Version: 6.00 Build 43363)  -->
<svg
   xmlns:dc="http://purl.org/dc/elements/1.1/"
   xmlns:cc="http://creativecommons.org/ns#"
   xmlns:rdf="http://www.w3.org/1999/02/22-rdf-syntax-ns#"
   xmlns:svg="http://www.w3.org/2000/svg"
   xmlns="http://www.w3.org/2000/svg"
   xmlns:sodipodi="http://sodipodi.sourceforge.net/DTD/sodipodi-0.dtd"
   xmlns:inkscape="http://www.inkscape.org/namespaces/inkscape"
   version="1.0"
   id="Layer_1"
   x="0px"
   y="0px"
   width="158.46001"
   height="52.299728"
   viewBox="0 0 612 792"
   enable-background="new 0 0 612 792"
   xml:space="preserve"
   sodipodi:version="0.32"
   inkscape:version="0.46"
   sodipodi:docname="rit_black_no_bar.svg"
   inkscape:output_extension="org.inkscape.output.svg.inkscape"><metadata
   id="metadata18"><rdf:RDF><cc:Work
       rdf:about=""><dc:format>image/svg+xml</dc:format><dc:type
         rdf:resource="http://purl.org/dc/dcmitype/StillImage" /></cc:Work></rdf:RDF></metadata><defs
   id="defs16"><inkscape:perspective
     sodipodi:type="inkscape:persp3d"
     inkscape:vp_x="0 : 396 : 1"
     inkscape:vp_y="0 : 1000 : 0"
     inkscape:vp_z="612 : 396 : 1"
     inkscape:persp3d-origin="306 : 264 : 1"
     id="perspective20" /></defs><sodipodi:namedview
   inkscape:window-height="737"
   inkscape:window-width="1280"
   inkscape:pageshadow="2"
   inkscape:pageopacity="0.0"
   guidetolerance="10.0"
   gridtolerance="10.0"
   objecttolerance="10.0"
   borderopacity="1.0"
   bordercolor="#666666"
   pagecolor="#ffffff"
   id="base"
   showgrid="false"
   inkscape:zoom="5.33"
   inkscape:cx="72.803322"
   inkscape:cy="46.553971"
   inkscape:window-x="-4"
   inkscape:window-y="-4"
   inkscape:current-layer="Layer_1" />
<g
   id="g3"
   transform="matrix(10.573603,0,0,10.573603,-2921.459,-3803.5901)">
	<path
   clip-rule="evenodd"
   d="M 212.14,369.748 C 212.14,368.623 211.935,366.681 213.265,366.068 C 214.185,365.659 218.683,365.965 219.91,365.965 C 229.111,365.965 234.223,372.303 234.223,381.3 C 234.223,396.124 224.92,396.43 212.14,396.43 L 212.14,369.748 L 212.14,369.748 z M 227.475,397.453 C 237.596,396.533 245.979,390.91 245.979,379.869 C 245.979,365.658 234.222,363 222.567,363 C 218.273,363.103 213.877,363.307 209.583,363.409 C 203.756,363.306 197.826,363.102 191.999,363 L 191.999,365.352 C 195.27,365.352 199.564,365.249 200.689,368.828 C 201.609,371.588 201.609,379.154 201.609,382.425 L 201.609,411.256 C 201.609,414.527 201.609,422.093 200.689,424.853 C 199.564,428.33 195.271,428.33 191.999,428.33 L 191.999,430.682 C 197.11,430.579 202.222,430.375 207.334,430.273 C 212.241,430.376 217.046,430.58 221.749,430.682 L 221.749,428.33 C 218.478,428.33 214.286,428.433 213.059,424.853 C 212.139,422.093 212.139,414.528 212.139,411.256 L 212.139,399.193 C 217.557,399.193 217.148,399.806 220.522,403.691 L 237.493,424.752 L 242.298,430.682 C 244.854,430.579 247.41,430.375 249.965,430.273 C 253.032,430.376 256.099,430.58 259.166,430.682 L 259.166,428.33 C 253.952,427.512 252.418,426.081 249.147,422.298 L 227.475,397.453 L 227.475,397.453 z"
   id="path5"
   style="fill-rule:evenodd" />
	<path
   clip-rule="evenodd"
   d="M 299.416,411.255 C 299.416,414.526 299.416,422.092 298.394,424.852 C 297.065,428.329 292.873,428.329 289.602,428.329 L 289.602,430.681 C 294.713,430.578 299.927,430.374 305.039,430.272 C 309.946,430.375 314.956,430.579 319.761,430.681 L 319.761,428.329 C 316.49,428.329 312.298,428.329 310.97,424.852 C 309.947,422.092 309.947,414.527 309.947,411.255 L 309.947,382.424 C 309.947,379.153 309.947,371.588 310.97,368.827 C 312.298,365.351 316.49,365.351 319.761,365.351 L 319.761,363 C 314.65,363.103 309.538,363.307 304.324,363.409 C 299.417,363.306 294.509,363.102 289.602,363 L 289.602,365.352 C 292.873,365.352 297.065,365.352 298.394,368.828 C 299.416,371.588 299.416,379.154 299.416,382.425 L 299.416,411.255 L 299.416,411.255 z"
   id="path7"
   style="fill-rule:evenodd" />
	<path
   clip-rule="evenodd"
   d="M 418.146,363 L 355.373,363 L 355.373,378.949 L 357.725,378.949 C 358.135,366.783 363.041,366.272 373.163,366.272 C 377.253,366.272 381.751,365.965 381.751,369.032 L 381.751,417.491 C 381.751,425.056 380.319,427.919 370.403,428.328 L 370.403,430.68 C 375.923,430.577 381.239,430.373 386.659,430.271 C 392.28,430.374 398.007,430.578 403.63,430.68 L 403.63,428.328 C 393.712,427.919 392.28,425.057 392.28,417.491 L 392.28,369.032 C 392.28,365.761 398.415,366.272 402.198,366.272 C 411.807,366.272 415.692,368.93 416.305,378.949 L 419.067,378.949 L 418.146,363 L 418.146,363 z"
   id="path9"
   style="fill-rule:evenodd" />
	<path
   d="M 266.551,396.929 C 266.551,394.682 268.372,392.861 270.619,392.861 C 272.866,392.861 274.687,394.682 274.687,396.929 C 274.687,399.176 272.865,400.997 270.619,400.997 C 268.373,400.997 266.551,399.176 266.551,396.929 L 266.551,396.929 z"
   id="path11" />
	<path
   d="M 334.801,396.929 C 334.801,394.682 336.623,392.861 338.869,392.861 C 341.115,392.861 342.937,394.682 342.937,396.929 C 342.937,399.176 341.115,400.997 338.869,400.997 C 336.623,400.997 334.801,399.176 334.801,396.929 L 334.801,396.929 z"
   id="path13" />
</g>
</svg>