<?xml version="1.0" encoding="UTF-8"?>
<svg version="1.1" viewBox="0 0 504 181" xmlns="http://www.w3.org/2000/svg" xmlns:cc="http://creativecommons.org/ns#" xmlns:dc="http://purl.org/dc/elements/1.1/" xmlns:rdf="http://www.w3.org/1999/02/22-rdf-syntax-ns#">
    <metadata>
        <rdf:RDF>
            <cc:Work rdf:about="">
                <dc:format>image/svg+xml</dc:format>
                <dc:type rdf:resource="http://purl.org/dc/dcmitype/StillImage"/>
                <dc:title/>
            </cc:Work>
        </rdf:RDF>
    </metadata>
    <path d="m158.4 176.02c-6.4524-1.9964-11.223-9.7768-9.9916-16.294 0.74991-3.9675 3.905-9.2441 6.2926-10.524 1.6413-0.87964 1.7726-0.52991 1.4602 3.8884-0.2917 4.1254 0.0396 5.2378 2.2046 7.4028 6.3938 6.3938 19.39 0.78055 30.535-13.189 4.4128-5.5309 14.87-22.885 16.764-27.821 0.6426-1.6746 0.44279-1.6517-2.2367 0.25627-4.0289 2.8688-10.308 4.4267-13.941 3.459-4.3162-1.1497-7.483-6.3402-7.483-12.265v-4.812l-6.75 5.1205c-17.729 13.449-36.269 15.831-41.078 5.2768-3.7719-8.2784 1.5094-22.401 11.89-31.795 16.535-14.963 39.601-18.078 39.239-5.2996-0.29994 10.581-14.011 22.217-30.295 25.709-4.486 0.96207-4.8857 1.2636-3.9623 2.9889 1.7789 3.3239 9.3605 2.5818 18.072-1.7688 5.8942-2.9436 10.036-6.2721 20.523-16.495 14.562-14.194 20.351-17.791 28.661-17.808 2.6398-5e-3 6.2072 0.7181 7.9275 1.6077 2.8928 1.4959 3.2191 1.4927 4.3414-0.0422 0.99058-1.3547 2.6885-1.606 9.2403-1.3675l8.0267 0.2922-9.489 17.5c-5.2189 9.625-13.128 24.25-17.577 32.5-11.662 21.628-17.967 30.936-27.153 40.083-9.7851 9.7431-16.69 13.481-25.862 14.002-3.4404 0.1952-7.6524-0.0773-9.3599-0.60562zm51.326-69.585c3.9818-3.0298 7.0238-7.0623 11.399-15.111 3.9838-7.3283 3.4287-9.5912-2.476-10.093-3.2571-0.27696-4.2272 0.26524-8.9459 5-5.654 5.6733-10.698 14.541-10.698 18.807 0 5.5645 4.4774 6.1479 10.721 1.3969zm-52.547-11.937c5.4374-1.8527 11.826-7.4201 11.826-10.306 0-6.2627-10.179-3.0912-15.129 4.7136-2.859 4.5083-3.6138 7.1361-2.0495 7.1361 0.45202 0 2.8605-0.69465 5.3522-1.5437zm-124.82 29.605c-6.1982-2.6545-7.0094-11.334-2.357-25.221 1.65-4.9249 3-9.3425 3-9.8169 0-0.47438-1.6833-0.39772-3.7406 0.17034-4.9368 1.3631-15.54 0.21777-21.212-2.2913-3.5231-1.5585-4.1881-2.2023-3.0304-2.9343 0.81572-0.51578 3.0761-0.94468 5.023-0.9531 4.9113-0.0213 14.076-2.5334 19.772-5.42 7.961-4.0341 14.514-10.85 22.695-23.606l7.6895-11.989h8.9019c4.896 0 8.9019 0.26506 8.9019 0.58903s-3.1224 6.0615-6.9386 12.75c-17.171 30.095-25.277 50.49-20.757 52.224 2.54 0.97469 8.3047-2.4064 15.235-8.9357 5.9188-5.576 7.7123-8.3784 19.922-31.128l13.418-25 9.1819-0.28914c7.1752-0.22595 9.0719-7e-3 8.6783 1-0.27702 0.70902-6.8559 13.214-14.62 27.789-11.461 21.515-14.116 27.262-14.118 30.55-0.0013 2.2275 0.53772 4.59 1.1977 5.25 6.0065 6.0065 26.521-12.434 37.045-33.3 3.8265-7.5867 7.5686-20.411 8.8333-30.272 2.16-16.843-3.4307-28.7-13.904-29.489-3.1129-0.23448-2.7095-1.0693 1.7198-3.5587 7.8621-4.4187 16.807-3.8257 23.18 1.5367 10.797 9.085 11.875 31.753 2.5357 53.305-13.221 30.51-46.226 59.001-68.774 59.37-5.8046 0.095-7.0061-0.21177-9.3174-2.3786-1.4594-1.3682-3.1513-4.3488-3.7597-6.6236l-1.1062-4.136-4.7091 3.3831c-10.016 7.1954-23.451 11.625-28.587 9.4255zm300.9-1.263c-4.7436-1.2468-6.439-4.5156-6.3792-12.299l0.0505-6.5854-7.631 6.5372c-11.699 10.022-21.096 13.904-24.303 10.039-2.2197-2.6746-0.40291-9.0062 6.4804-22.585 7.656-15.103 7.5639-16.827-0.64197-12.025-7.9687 4.6634-7.8444 4.5085-16.336 20.369l-7.8968 14.75h-8.2989c-4.7469 0-8.2988-0.41899-8.2988-0.97895 0-0.53843 3.825-8.1205 8.5-16.849 7.6551-14.293 9.9218-20.19 7.75-20.163-1.0773 0.0135-10.368 5.5832-12.844 7.7004-1.1518 0.98463-5.5796 8.2028-9.8394 16.04l-7.7452 14.25h-7.9106c-4.3508 0-7.9106-0.25282-7.9106-0.56181 0-0.309 2.125-4.4715 4.7221-9.25 2.5972-4.7785 8.3692-15.438 12.827-23.688l8.1045-15 8.1733-0.29045c4.4953-0.15974 8.1717 0.0653 8.1696 0.5-2e-3 0.43475-0.90205 2.2638-2 4.0646-1.0979 1.8008-1.9963 3.4693-1.9963 3.7078 0 0.2385 3.5658-1.42 7.9239-3.6856 10.013-5.2052 18.18-6.3399 20.08-2.79 0.65874 1.2309 0.93871 3.533 0.62215 5.1158-0.31657 1.5828-0.36858 2.8778-0.11559 2.8778 0.25298 0 2.6042-1.3155 5.225-2.9233 10.44-6.4047 21.477-8.9361 24.273-5.5671 2.0826 2.5093 0.48982 9.0648-4.8916 20.133-2.7696 5.6965-4.8022 10.357-4.517 10.357 0.9207 0 15.668-11.827 23.901-19.168 12.185-10.865 23.433-15.098 30.98-11.659 1.9691 0.89717 2.8499 0.89717 3.7471 0 0.69579-0.6958 4.3318-1.1729 8.9389-1.1729h7.766l-7.5181 14.438c-7.1425 13.717-10.024 20.562-8.6559 20.562 0.34013 0 4.7056-3.1127 9.7012-6.9171 9.4757-7.2164 13.009-11.381 18.522-21.833l3.297-6.25h7.8607c8.6927 0 9.0463 0.3455 5.7734 5.6412l-2.0872 3.3772 9.2647-4.5092c10.91-5.3098 16.882-6.0076 19.337-2.2592 2.149 3.2815 0.61962 8.7354-6.1828 22.048-3.148 6.1609-5.8929 11.583-6.0998 12.049-0.93178 2.0979 4.3644-1.9441 9.602-7.3282 7.3937-7.6006 14.2-10.511 19.671-8.4122 1.3099 0.50266 1.1477 0.94753-0.94612 2.5945-2.9264 2.3019-6.4713 8.7706-6.4713 11.809 0 5.6922 7.099 11.962 11.694 10.328 5.7033-2.0277 6.5956-6.2379 3.3059-15.598-2.6397-7.5104-2.6404-16.565-2e-3 -21.737 3.8351-7.5175 14.755-11.251 21.98-7.5143 7.2204 3.7337 4.0206 12.511-4.5607 12.511-2.1501 0-2.3475-0.26282-1.4529-1.9343 2.368-4.4246 0.0829-8.8504-3.9145-7.5817-3.9943 1.2678-3.6522 5.0865 1.3148 14.674 3.8808 7.491 4.6349 9.8493 4.6349 14.493 0 9.2498-3.9704 14.434-13.718 17.911-5.6753 2.0247-17.934 1.7785-22.861-0.45913-4.3884-1.9931-8.1079-6.0062-9.0515-9.7662-0.32267-1.2856-0.77613-2.3375-1.0077-2.3375-0.23155 0-2.7703 1.8658-5.6416 4.1463-9.2986 7.3852-17.625 9.8064-21.252 6.1797-2.6046-2.6046-1.275-7.3552 6.0696-21.686 3.625-7.0732 6.3571-13.469 6.0715-14.214-0.71393-1.8605-4.7855-0.33006-10.761 4.0448-3.8972 2.8533-5.9234 5.7655-12.5 17.966l-7.8489 14.561-7.75 1e-3c-5.0881 7.9e-4 -7.75-0.38632-7.75-1.1271 0-0.62055 1.383-3.5456 3.0734-6.5 1.6904-2.9544 2.7653-5.3717 2.3888-5.3717-0.37653 0-2.846 1.8096-5.4876 4.0213-6.9389 5.8098-15.929 10.979-19.093 10.979-3.005 0-6.8814-3.9907-6.8814-7.0843 0-1.5085-0.96984-1.1532-5.75 2.1067-6.487 4.424-12.213 6.033-16.995 4.776zm19.381-15.65c5.2949-3.8356 8.8897-8.2659 12.483-15.385 3.9153-7.7561 3.6026-10.163-1.3736-10.575-3.3813-0.27976-4.2761 0.21728-9.0006 5-8.1725 8.2732-13.595 21.494-9.4948 23.148 2.3926 0.96543 3.4738 0.64502 7.3858-2.1889z"/>
</svg>
